<svg width="45" height="45" viewBox="0 0 45 45" fill="none" xmlns="http://www.w3.org/2000/svg">
<path d="M37.5 31.8755V21.4731C37.5 20.4712 37.4991 19.97 37.3773 19.5038C37.2694 19.0907 37.0921 18.6997 36.8523 18.3464C36.5817 17.9477 36.2054 17.6171 35.4514 16.9574L26.4514 9.08236C25.0515 7.85745 24.3516 7.2453 23.5638 7.01235C22.8697 6.80708 22.1299 6.80708 21.4358 7.01235C20.6486 7.24513 19.9497 7.85669 18.5519 9.07975L9.54895 16.9574C8.79495 17.6171 8.41883 17.9477 8.14819 18.3464C7.90836 18.6997 7.72978 19.0907 7.62182 19.5038C7.5 19.97 7.5 20.4712 7.5 21.4731V31.8755C7.5 33.6228 7.5 34.4961 7.78545 35.1852C8.16605 36.1041 8.8956 36.835 9.81445 37.2156C10.5036 37.501 11.3772 37.5011 13.1245 37.5011C14.8718 37.5011 15.7464 37.501 16.4355 37.2156C17.3544 36.835 18.0838 36.1042 18.4644 35.1854C18.7498 34.4962 18.75 33.6226 18.75 31.8753V30.0003C18.75 27.9293 20.4289 26.2503 22.5 26.2503C24.5711 26.2503 26.25 27.9293 26.25 30.0003V31.8753C26.25 33.6226 26.25 34.4962 26.5355 35.1854C26.9161 36.1042 27.6456 36.835 28.5645 37.2156C29.2536 37.501 30.1272 37.5011 31.8745 37.5011C33.6218 37.5011 34.4964 37.501 35.1855 37.2156C36.1044 36.835 36.8338 36.1041 37.2144 35.1852C37.4998 34.4961 37.5 33.6228 37.5 31.8755Z" stroke="#E6C88E" stroke-width="2" stroke-linecap="round" stroke-linejoin="round"/>
</svg>
