<svg width="45" height="45" viewBox="0 0 45 45" fill="none" xmlns="http://www.w3.org/2000/svg">
<path d="M28.125 31.875V33.75C28.125 36.8566 25.6066 39.375 22.5 39.375C19.3934 39.375 16.875 36.8566 16.875 33.75V31.875M28.125 31.875H16.875M28.125 31.875H34.8572C35.5744 31.875 35.9348 31.875 36.2252 31.777C36.7799 31.5899 37.214 31.1543 37.4011 30.5996C37.4995 30.308 37.4995 29.9466 37.4995 29.2236C37.4995 28.9073 37.4991 28.7491 37.4744 28.5983C37.4276 28.3133 37.317 28.0431 37.1485 27.8085C37.0595 27.6846 36.9464 27.5714 36.7234 27.3484L35.993 26.618C35.7574 26.3824 35.625 26.0628 35.625 25.7295V18.75C35.625 11.5013 29.7487 5.62498 22.5 5.625C15.2513 5.62502 9.375 11.5013 9.375 18.75V25.7296C9.375 26.0628 9.24233 26.3824 9.00669 26.618L8.27637 27.3484C8.05267 27.5721 7.9407 27.6844 7.85156 27.8086C7.6831 28.0432 7.57152 28.3133 7.52475 28.5983C7.5 28.7491 7.5 28.9073 7.5 29.2237C7.5 29.9466 7.5 30.3079 7.59835 30.5995C7.78547 31.1543 8.2215 31.5899 8.77625 31.777C9.06667 31.875 9.42565 31.875 10.1429 31.875H16.875" stroke="#E6C88E" stroke-width="2" stroke-linecap="round" stroke-linejoin="round"/>
</svg>
