<svg width="45" height="45" viewBox="0 0 45 45" fill="none" xmlns="http://www.w3.org/2000/svg">
<path d="M5.625 11.25H5.66098M5.66098 11.25H16.875M5.66098 11.25C5.625 11.8395 5.625 12.5661 5.625 13.5004V31.5004C5.625 33.6006 5.625 34.6492 6.03373 35.4514C6.39325 36.157 6.96651 36.7321 7.67212 37.0917C8.47351 37.5 9.52313 37.5 11.6193 37.5L16.875 37.5M5.66098 11.25C5.70589 10.5144 5.80682 9.99244 6.03373 9.54712C6.39325 8.84151 6.96651 8.26825 7.67212 7.90873C8.47429 7.5 9.52517 7.5 11.6254 7.5H33.3754C35.4756 7.5 36.5242 7.5 37.3264 7.90873C38.032 8.26825 38.6071 8.84151 38.9667 9.54712C39.1936 9.99244 39.2944 10.5144 39.3392 11.25M16.875 11.25H39.3392M16.875 11.25V37.5M39.3392 11.25H39.375M39.3392 11.25C39.375 11.8382 39.375 12.5629 39.375 13.4942L39.375 31.5057C39.375 33.6019 39.375 34.65 38.9667 35.4514C38.6072 36.157 38.032 36.7321 37.3264 37.0917C36.525 37.5 35.4769 37.5 33.3808 37.5H16.875" stroke="#E6C88E" stroke-width="2" stroke-linecap="round" stroke-linejoin="round"/>
</svg>
